<svg version="1.2" xmlns="http://www.w3.org/2000/svg" viewBox="0 0 94 80" width="94" height="80"><style>.a{fill:#06bcfb}</style><path class="a" d="m73.1 50.9c1 0 1.8-0.8 1.8-1.8 0-1-0.8-1.8-1.8-1.8-1 0-1.8 0.8-1.8 1.8 0 1 0.8 1.8 1.8 1.8z"/><path class="a" d="m20 50.9c1 0 1.8-0.8 1.8-1.8 0-1-0.8-1.8-1.8-1.8-1 0-1.8 0.8-1.8 1.8 0 1 0.8 1.8 1.8 1.8z"/><path class="a" d="m28 50.1c-0.8-0.6-1.9-0.5-2.6 0.3-0.6 0.8-0.5 1.9 0.3 2.5 2.2 1.8 3.4 4.3 3.4 7.1 0 5-4.1 9.1-9.1 9.1-1 0-1.8 0.8-1.8 1.8 0 1 0.8 1.8 1.8 1.8 7 0 12.7-5.7 12.7-12.7 0-3.9-1.7-7.5-4.7-9.9z"/><path class="a" d="m90 49.3c-17.5-38.5-16.7-36.8-16.8-37-1.3-2.1-3.3-3.6-5.6-4.4v-0.6c0-4-3.2-7.3-7.2-7.3-4 0-7.3 3.3-7.3 7.3v14.5h-13.1c0-1.7 0-12.3 0-14.5 0-4-3.3-7.3-7.3-7.3-4 0-7.2 3.3-7.2 7.3v0.6c-2.3 0.8-4.3 2.3-5.6 4.4-0.1 0.2 0.7-1.5-16.8 37-2 3.2-3.1 6.9-3.1 10.7 0 11 9 20 20 20 11 0 20-9 20-20v-5.5h13.1v5.5c0 11 9 20 20 20 11 0 20-9 20-20 0-3.8-1.1-7.5-3.1-10.7zm-33.3-16.6c0-6 4.9-10.9 10.9-10.9 2.6 0 5.1 0.9 7.1 2.6l8.3 18.2c-3-1.7-6.4-2.6-9.9-2.6-6.8 0-12.7 3.4-16.4 8.5zm13.4-18.6l2.1 4.8q-2.2-0.7-4.6-0.7c-4.3 0-8.2 1.9-10.9 4.9 0-2.8 0-2.2 0-4.9 0-4 3.3-7.3 7.3-7.3 2.5 0 4.7 1.2 6.1 3.2zm-9.7-10.5c2 0 3.6 1.7 3.6 3.7-2.8 0-5.3 1-7.3 2.7v-2.7c0-2 1.7-3.7 3.7-3.7zm-7.3 21.8v18.2h-13.1v-18.2zm-34.7-1c2-1.7 4.5-2.6 7.1-2.6 6 0 10.9 4.9 10.9 10.9v15.8c-3.7-5.1-9.6-8.5-16.4-8.5-3.5 0-6.9 0.9-9.9 2.6zm14.4-20.8c2 0 3.6 1.6 3.6 3.6v2.8c-1.9-1.7-4.4-2.8-7.2-2.8 0-2 1.6-3.6 3.6-3.6zm-9.7 10.5c1.3-2 3.6-3.2 6.1-3.2 4 0 7.2 3.2 7.2 7.2v5c-2.6-3.1-6.5-5-10.9-5q-2.3 0-4.6 0.8zm-3 62.2c-9 0-16.4-7.4-16.4-16.4 0-3.1 0.9-6.2 2.6-8.8q0 0 0 0 0 0 0 0c3.1-4.7 8.2-7.5 13.8-7.5 9 0 16.4 7.3 16.4 16.3 0 9-7.4 16.4-16.4 16.4zm20-25.5v-3.6h13.1v3.6zm33.1 25.5c-9 0-16.4-7.4-16.4-16.4 0-9 7.4-16.3 16.4-16.3 5.6 0 10.7 2.8 13.8 7.5q0 0 0 0 0 0 0 0c1.7 2.6 2.5 5.7 2.5 8.8 0 9-7.3 16.4-16.3 16.4z"/><path class="a" d="m81.1 50.1c-0.8-0.6-1.9-0.5-2.6 0.3-0.6 0.7-0.5 1.9 0.3 2.5 2.1 1.7 3.4 4.2 3.4 7.1 0 5-4.1 9.1-9.1 9.1-1 0-1.8 0.8-1.8 1.8 0 1 0.8 1.8 1.8 1.8 7 0 12.7-5.7 12.7-12.7 0-4-1.8-7.5-4.7-9.9z"/></svg>