<svg version="1.2" xmlns="http://www.w3.org/2000/svg" viewBox="0 0 80 80" width="80" height="80"><style>.a{fill:#06bcfb}</style><path class="a" d="m39.8 80c6.9 0 13.7-1.8 19.7-5.2 6-3.4 11-8.2 14.5-14.1 3.6-5.9 5.6-12.6 5.8-19.5 0.2-6.9-1.4-13.7-4.6-19.8-0.2-0.4-0.5-0.6-0.9-0.7-0.3-0.1-0.7-0.1-1 0.1-0.4 0.2-0.6 0.5-0.7 0.8-0.1 0.4-0.1 0.8 0.1 1.1 2.8 5.3 4.2 11.3 4.2 17.3-2 49.3-72.2 49.3-74.2 0-0.4-27.5 30.2-46 54.4-32.9 0.3 0.2 0.7 0.2 1.1 0.1 0.3-0.1 0.6-0.3 0.8-0.7 0.2-0.3 0.2-0.7 0.1-1-0.1-0.4-0.3-0.7-0.7-0.9-5.7-3-12.1-4.6-18.6-4.6-53.1 2.2-53.1 77.8 0 80z"/><path class="a" d="m39.8 28.6q1.9 0 3.6 0.6c0.4 0.1 0.8 0.1 1.1-0.1 0.4-0.2 0.6-0.4 0.7-0.8 0.7-2.5-3.8-2.4-5.4-2.6-19 0.8-19 27.8 0 28.6 3.8 0 7.4-1.5 10.1-4.2 2.7-2.7 4.2-6.3 4.2-10.1-0.2-1.7-0.1-6.1-2.6-5.4q-0.3 0.1-0.5 0.2-0.2 0.2-0.3 0.5-0.1 0.2-0.1 0.5-0.1 0.3 0 0.6 0.6 1.7 0.6 3.6c-0.6 15.1-22.3 15.1-22.8 0 0-3 1.2-5.9 3.3-8.1 2.2-2.1 5.1-3.3 8.1-3.3z"/><path class="a" d="m53.5 18.2q0.1-0.3 0.1-0.5 0.1-0.3 0-0.6-0.1-0.3-0.3-0.5-0.1-0.2-0.4-0.3c-4-2.3-8.5-3.4-13.1-3.4-36 1.4-36 52.8 0 54.2 4.7 0 9.4-1.2 13.5-3.5 4.1-2.4 7.5-5.7 9.9-9.8 2.4-4.1 3.7-8.7 3.7-13.4 0.1-4.7-1.1-9.4-3.4-13.5q-0.1-0.3-0.3-0.4-0.2-0.2-0.5-0.3-0.3-0.1-0.6-0.1-0.3 0.1-0.5 0.2-0.3 0.2-0.4 0.4-0.2 0.2-0.3 0.5-0.1 0.2 0 0.5 0 0.3 0.1 0.6c9.1 15.7-3.1 36.3-21.2 36-6.4 0-12.6-2.6-17.2-7.1-4.5-4.6-7.1-10.8-7.1-17.2-0.3-18.1 20.3-30.3 36-21.3q0.3 0.2 0.6 0.2 0.2 0.1 0.5 0 0.3-0.1 0.5-0.3 0.2-0.2 0.4-0.4z"/><path class="a" d="m56.3 14.1l0.5 6.9-18 18c-0.3 0.3-0.4 0.6-0.4 1 0 0.4 0.1 0.7 0.4 1 0.3 0.3 0.6 0.4 1 0.4 0.4 0 0.7-0.1 1-0.4l18-18 6.9 0.5q0.3 0.1 0.6 0 0.2-0.2 0.5-0.4l10.4-10.4q0.3-0.3 0.3-0.7 0.1-0.4 0-0.8-0.2-0.4-0.5-0.6-0.3-0.3-0.7-0.3l-6.3-0.5-0.5-6.3q0-0.4-0.3-0.7-0.2-0.3-0.6-0.5-0.4-0.1-0.8-0.1-0.4 0.1-0.7 0.4l-10.4 10.4q-0.3 0.2-0.4 0.5-0.1 0.3 0 0.6zm10.6-7.3c0.6 6.7-0.6 5.5 6.1 6.1l-7.8 7.7-5.6-0.4-0.4-5.6z"/></svg>