<svg version="1.2" xmlns="http://www.w3.org/2000/svg" viewBox="0 0 31 31" width="31" height="31">
	<title>faq-cta-phone</title>
	<style>
		.s0 { fill: #06bcfb } 
	</style>
	<path class="s0" d="m23.2 21.6q-0.5-0.4-1.1-0.6-0.6-0.2-1.2-0.1-0.6 0-1.2 0.3-0.5 0.3-0.9 0.8l-0.1 0.1q-0.2 0.4-0.7 0.6-0.4 0.1-0.8 0.1c-2.2-0.4-4.2-1.4-5.8-3-1.6-1.6-2.6-3.6-2.9-5.8q-0.1-0.4 0-0.9 0.2-0.4 0.6-0.7h0.1q0.5-0.4 0.8-0.9 0.3-0.6 0.4-1.2 0-0.6-0.1-1.2-0.2-0.6-0.6-1.1l-1.2-1.4q-0.5-0.5-1.2-0.8-0.7-0.3-1.4-0.2-0.7 0-1.4 0.4-0.6 0.4-1 1l-1.4 2.1c-0.6 1.2-0.9 2.7-0.6 4.1 0.9 4 2.9 7.8 5.8 10.7 3 2.9 6.7 4.9 10.7 5.8q0.6 0.1 1.2 0.1c1.1 0 2.1-0.3 3-0.8l2-1.3q0.7-0.4 1-1 0.4-0.7 0.4-1.4 0.1-0.7-0.2-1.4-0.3-0.7-0.8-1.2z"/>
	<path class="s0" d="m21.5 1.4c-1.4 0-2.8 0.4-4 1-1.3 0.7-2.3 1.7-3 2.9-0.8 1.3-1.2 2.6-1.2 4.1-0.1 1.4 0.2 2.8 0.9 4l-1 3.6q0 0.2 0.1 0.4 0 0.2 0.2 0.3 0.1 0.2 0.2 0.2 0.2 0.1 0.3 0.1 0.1 0 0.2 0l3.6-0.9c1.1 0.5 2.3 0.8 3.6 0.9 1.2 0 2.5-0.3 3.6-0.8 1.1-0.5 2.1-1.3 2.9-2.3 0.8-0.9 1.4-2.1 1.7-3.3 0.2-1.2 0.3-2.5 0-3.7-0.3-1.2-0.8-2.4-1.6-3.3-0.8-1-1.7-1.8-2.9-2.4-1.1-0.5-2.3-0.8-3.6-0.8zm0.4 13.4q-0.2 0-0.4-0.1-0.2-0.2-0.3-0.4-0.1-0.2 0-0.4 0-0.3 0.2-0.4 0.1-0.2 0.4-0.3 0.2 0 0.4 0.1 0.3 0.1 0.4 0.3 0.1 0.2 0.1 0.4 0 0.3-0.2 0.6-0.2 0.2-0.6 0.2zm1.3-4.9q-0.2 0.2-0.3 0.6-0.2 0.3-0.2 0.6v0.6q0 0.3-0.2 0.5-0.2 0.2-0.6 0.2-0.3 0-0.5-0.2-0.3-0.2-0.3-0.5v-0.6q0-0.6 0.3-1.3 0.2-0.6 0.7-1 0.3-0.3 0.5-0.7 0.1-0.4 0.1-0.8c0-0.3-0.1-0.6-0.3-0.8-0.2-0.2-0.5-0.4-0.9-0.4-0.3 0-0.6 0.2-0.8 0.4-0.2 0.2-0.3 0.5-0.3 0.8v0.4q-0.1 0.3-0.3 0.6-0.2 0.2-0.5 0.2-0.4 0-0.6-0.2-0.2-0.3-0.2-0.6v-0.4c0-0.7 0.3-1.4 0.8-1.9 0.5-0.6 1.2-0.9 1.9-0.9 0.8 0 1.5 0.3 2 0.9 0.5 0.5 0.8 1.2 0.8 1.9q0 0.7-0.3 1.4-0.3 0.7-0.8 1.2z"/>
</svg>