<svg version="1.2" xmlns="http://www.w3.org/2000/svg" viewBox="0 0 40 40" width="40" height="40"><defs><clipPath clipPathUnits="userSpaceOnUse" id="cp1"><path d="m0 0h40v40h-40z"/></clipPath></defs><style>.a{fill:none;stroke:#bf5ec6;stroke-linecap:round;stroke-linejoin:round;stroke-width:1.5}</style><filter id="f0"><feFlood flood-color="#06bcfb" flood-opacity="1" /><feBlend mode="normal" in2="SourceGraphic"/><feComposite in2="SourceAlpha" operator="in" /></filter><g clip-path="url(#cp1)" filter="url(#f0)"><path class="a" d="m38.6 30v5.7c0 0.8-0.3 1.5-0.9 2-0.5 0.6-1.2 0.9-2 0.9h-5.7"/><path class="a" d="m30 1.4h5.7c0.8 0 1.5 0.3 2 0.9 0.6 0.5 0.9 1.2 0.9 2v5.7"/><path class="a" d="m1.4 10v-5.7c0-0.8 0.3-1.5 0.9-2 0.5-0.6 1.2-0.9 2-0.9h5.7"/><path class="a" d="m10 38.6h-5.7c-0.8 0-1.5-0.3-2-0.9-0.6-0.5-0.9-1.2-0.9-2v-5.7"/><path class="a" d="m32.9 20c0 0-5.8 8.6-12.9 8.6-7.1 0-12.9-8.6-12.9-8.6 0 0 5.8-8.6 12.9-8.6 7.1 0 12.9 8.6 12.9 8.6z"/><path class="a" d="m20 21.4c0.8 0 1.4-0.6 1.4-1.4 0-0.8-0.6-1.4-1.4-1.4-0.8 0-1.4 0.6-1.4 1.4 0 0.8 0.6 1.4 1.4 1.4z"/></g></svg>