<svg version="1.2" xmlns="http://www.w3.org/2000/svg" viewBox="0 0 50 51" width="50" height="51"><style>.a{fill:#06bcfb}</style><path class="a" d="m45.6 7.6h-41.2c-2.4 0-4.4 1.9-4.4 4.4v26.3c0 2.5 2 4.4 4.4 4.4h41.2c2.4 0 4.4-1.9 4.4-4.4v-26.3c0-2.4-2-4.4-4.4-4.4zm-0.6 2.9c-0.9 0.9-16.4 16.3-16.9 16.8-0.8 0.8-1.9 1.3-3.1 1.3-1.2 0-2.3-0.5-3.1-1.3-0.4-0.4-15.6-15.6-16.9-16.8zm-42.1 27.2v-25.1l12.7 12.6zm2.1 2l12.6-12.6 2.2 2.2c1.4 1.4 3.2 2.1 5.2 2.1 1.9 0 3.8-0.7 5.2-2.1l2.1-2.2 12.7 12.6zm42-2l-12.6-12.6 12.6-12.6z"/></svg>