<svg version="1.2" xmlns="http://www.w3.org/2000/svg" viewBox="0 0 50 51" width="50" height="51"><defs><clipPath clipPathUnits="userSpaceOnUse" id="cp1"><path d="m0 0.15h50v50h-50z"/></clipPath></defs><style>.a{fill:#bf5ec6}</style><filter id="f0"><feFlood flood-color="#06bcfb" flood-opacity="1" /><feBlend mode="normal" in2="SourceGraphic"/><feComposite in2="SourceAlpha" operator="in" /></filter><g clip-path="url(#cp1)" filter="url(#f0)"><path class="a" d="m39.5 31.1c-1-1-2.2-1.6-3.5-1.6-1.3 0-2.6 0.5-3.7 1.6l-3.3 3.3q-0.4-0.2-0.8-0.4-0.6-0.3-1-0.5c-3.2-2-6-4.6-8.7-8-1.4-1.6-2.2-3-2.9-4.5 0.9-0.7 1.7-1.6 2.5-2.4q0.4-0.4 0.9-0.9c2.2-2.2 2.2-5 0-7.3l-2.9-2.8q-0.5-0.5-1-1c-0.6-0.7-1.3-1.4-2-2-1-1-2.2-1.6-3.5-1.6-1.3 0-2.6 0.6-3.6 1.6q0 0 0 0l-3.6 3.6q-2.1 2.1-2.3 4.9c-0.3 3.1 0.6 6 1.3 7.9 1.7 4.6 4.3 8.9 8.1 13.4 4.6 5.6 10.2 9.9 16.5 13 2.5 1.1 5.7 2.5 9.3 2.7q0.4 0 0.7 0 3.7 0 6.1-2.6 0 0 0 0c0.6-0.7 1.2-1.3 1.9-1.9q0.7-0.7 1.3-1.4c1.1-1.1 1.6-2.3 1.6-3.6 0-1.4-0.5-2.6-1.6-3.7zm3.8 11.1q0 0.1 0 0c-0.4 0.5-0.8 0.9-1.3 1.3-0.7 0.7-1.4 1.4-2 2.1-1.1 1.2-2.4 1.7-4 1.7q-0.2 0-0.5 0c-3.1-0.2-6-1.4-8.2-2.5-6-2.8-11.2-7-15.6-12.2-3.6-4.3-6-8.3-7.6-12.6-1-2.6-1.3-4.7-1.2-6.6 0.1-1.2 0.6-2.3 1.5-3.1l3.6-3.6q0.8-0.8 1.6-0.8c0.6 0 1.2 0.4 1.5 0.7q0 0.1 0.1 0.1c0.6 0.6 1.2 1.2 1.9 1.9q0.4 0.5 1 1l2.8 2.9c1.2 1.1 1.2 2.1 0 3.2q-0.4 0.5-0.9 0.9c-0.9 1-1.7 1.8-2.6 2.6q-0.1 0-0.1 0.1c-0.9 0.9-0.7 1.8-0.5 2.4q0 0 0 0.1c0.8 1.8 1.8 3.5 3.4 5.5 2.9 3.6 6 6.4 9.4 8.6q0.7 0.4 1.3 0.7 0.6 0.2 1 0.5 0.1 0.1 0.2 0.1 0.5 0.3 1 0.3c0.9 0 1.4-0.6 1.6-0.8l3.6-3.6c0.4-0.3 1-0.8 1.6-0.8 0.7 0 1.2 0.4 1.5 0.8q0.1 0 0.1 0l5.8 5.8q1.6 1.7 0 3.3z"/><path class="a" d="m27 12c2.8 0.5 5.3 1.8 7.3 3.8 2 2 3.3 4.5 3.8 7.3 0.1 0.7 0.7 1.2 1.4 1.2q0.1 0 0.2 0c0.8-0.2 1.3-0.9 1.2-1.7-0.6-3.3-2.2-6.4-4.6-8.8-2.4-2.4-5.4-4-8.8-4.6-0.8-0.1-1.5 0.4-1.6 1.2-0.2 0.8 0.3 1.5 1.1 1.6z"/><path class="a" d="m49.9 22.2c-0.9-5.5-3.5-10.5-7.5-14.5-4-4-9-6.6-14.5-7.5-0.8-0.2-1.5 0.4-1.6 1.1-0.1 0.8 0.4 1.5 1.1 1.7 5 0.8 9.5 3.1 13 6.7 3.6 3.6 5.9 8.1 6.7 13 0.2 0.7 0.8 1.2 1.4 1.2q0.2-0.1 0.3-0.1c0.8-0.1 1.3-0.8 1.1-1.6z"/></g></svg>