<svg version="1.2" xmlns="http://www.w3.org/2000/svg" viewBox="0 0 16 16" width="16" height="16"><style>.a{fill:#06bcfb}</style><path class="a" d="m14.6 9.9l-4.7-1.9 4.8-1.9c0.2 0 0.4-0.3 0.4-0.6-0.1-0.5-0.4-1-0.7-1.5q-0.3-0.7-1-1.3c-0.2-0.1-0.5-0.1-0.7 0l-4 3.3 0.8-5.1c0.1-0.3 0-0.6-0.3-0.6-0.5-0.3-1.1-0.3-1.6-0.3-0.5 0-1.1 0-1.6 0.3-0.3 0-0.4 0.3-0.4 0.6l0.9 5.1-4-3.3c-0.3-0.2-0.5-0.2-0.8 0-0.4 0.4-0.7 0.8-0.9 1.3q-0.5 0.7-0.7 1.5c-0.1 0.3 0.1 0.6 0.4 0.6l4.7 1.9-4.8 1.9c-0.3 0-0.4 0.3-0.4 0.6q0.1 0.8 0.6 1.5 0.4 0.7 1 1.3c0.2 0.1 0.5 0.1 0.7 0l4-3.3-0.8 5.1c-0.1 0.3 0.1 0.6 0.4 0.7q0.8 0.2 1.6 0.2c0.5 0 1.1-0.1 1.6-0.2 0.2-0.1 0.4-0.4 0.3-0.7l-0.8-5.1 4 3.3c0.2 0.1 0.5 0.1 0.8 0q0.6-0.5 0.9-1.3 0.5-0.7 0.7-1.5c0.1-0.3-0.1-0.6-0.4-0.6z"/></svg>